<svg width="650" height="919" viewBox="0 0 650 919" fill="none" xmlns="http://www.w3.org/2000/svg">
<path d="M325 919L325 856.5C325 801.272 280.228 756.5 225 756.5L162.5 756.5L162.5 819C162.5 874.228 207.272 919 262.5 919L325 919Z" fill="#E3E3E3"/>
<path d="M162.5 756.5L162.5 819C162.5 874.228 117.728 919 62.5 919L-7.1031e-06 919L-4.37114e-06 856.5C-1.95703e-06 801.272 44.7715 756.5 100 756.5L162.5 756.5Z" fill="#E3E3E3"/>
<path d="M162.5 756.5L162.5 694C162.5 638.772 117.728 594 62.5 594L7.1031e-06 594L4.37114e-06 656.5C1.95703e-06 711.728 44.7715 756.5 100 756.5L162.5 756.5Z" fill="#E3E3E3"/>
<path d="M650 594L650 656.5C650 711.728 605.228 756.5 550 756.5L487.5 756.5L487.5 694C487.5 638.772 532.272 594 587.5 594L650 594Z" fill="#E3E3E3"/>
<path d="M650 919L650 856.5C650 801.272 605.228 756.5 550 756.5L487.5 756.5L487.5 819C487.5 874.228 532.272 919 587.5 919L650 919Z" fill="#E3E3E3"/>
<path d="M487.5 756.5L487.5 819C487.5 874.228 442.728 919 387.5 919L325 919L325 856.5C325 801.272 369.772 756.5 425 756.5L487.5 756.5Z" fill="#E3E3E3"/>
<path d="M487.5 756.5L487.5 694C487.5 638.772 442.728 594 387.5 594L325 594L325 656.5C325 711.728 369.772 756.5 425 756.5L487.5 756.5Z" fill="#E3E3E3"/>
<path d="M325 271L325 333.5C325 388.728 280.228 433.5 225 433.5L162.5 433.5L162.5 371C162.5 315.772 207.272 271 262.5 271L325 271Z" fill="#E3E3E3"/>
<path d="M325 596L325 533.5C325 478.272 280.228 433.5 225 433.5L162.5 433.5L162.5 496C162.5 551.228 207.272 596 262.5 596L325 596Z" fill="#E3E3E3"/>
<path d="M162.5 433.5L162.5 496C162.5 551.228 117.728 596 62.5 596L-7.1031e-06 596L-4.37114e-06 533.5C-1.95703e-06 478.272 44.7715 433.5 100 433.5L162.5 433.5Z" fill="#E3E3E3"/>
<path d="M162.5 433.5L162.5 371C162.5 315.772 117.728 271 62.5 271L7.1031e-06 271L4.37114e-06 333.5C1.95703e-06 388.728 44.7715 433.5 100 433.5L162.5 433.5Z" fill="#E3E3E3"/>
<path d="M650 596L650 533.5C650 478.272 605.228 433.5 550 433.5L487.5 433.5L487.5 496C487.5 551.228 532.272 596 587.5 596L650 596Z" fill="#E3E3E3"/>
<path d="M487.5 433.5L487.5 496C487.5 551.228 442.728 596 387.5 596L325 596L325 533.5C325 478.272 369.772 433.5 425 433.5L487.5 433.5Z" fill="#E3E3E3"/>
<path d="M487.5 433.5L487.5 371C487.5 315.772 442.728 271 387.5 271L325 271L325 333.5C325 388.728 369.772 433.5 425 433.5L487.5 433.5Z" fill="#E3E3E3"/>
<path d="M325 -52L325 10.5C325 65.7285 280.228 110.5 225 110.5L162.5 110.5L162.5 48C162.5 -7.22848 207.272 -52 262.5 -52L325 -52Z" fill="#E3E3E3"/>
<path d="M325 273L325 210.5C325 155.272 280.228 110.5 225 110.5L162.5 110.5L162.5 173C162.5 228.228 207.272 273 262.5 273L325 273Z" fill="#E3E3E3"/>
<path d="M162.5 110.5L162.5 173C162.5 228.228 117.728 273 62.5 273L-7.1031e-06 273L-4.37114e-06 210.5C-1.95703e-06 155.272 44.7715 110.5 100 110.5L162.5 110.5Z" fill="#E3E3E3"/>
<path d="M162.5 110.5L162.5 48C162.5 -7.22848 117.728 -52 62.5 -52L7.1031e-06 -52L4.37114e-06 10.5C1.95703e-06 65.7285 44.7715 110.5 100 110.5L162.5 110.5Z" fill="#E3E3E3"/>
<path d="M650 273L650 210.5C650 155.272 605.228 110.5 550 110.5L487.5 110.5L487.5 173C487.5 228.228 532.272 273 587.5 273L650 273Z" fill="#E3E3E3"/>
<path d="M487.5 110.5L487.5 173C487.5 228.228 442.728 273 387.5 273L325 273L325 210.5C325 155.272 369.772 110.5 425 110.5L487.5 110.5Z" fill="#E3E3E3"/>
<path d="M487.5 110.5L487.5 48C487.5 -7.22848 442.728 -52 387.5 -52L325 -52L325 10.5C325 65.7285 369.772 110.5 425 110.5L487.5 110.5Z" fill="#E3E3E3"/>
</svg>
