<svg width="150" height="150" viewBox="0 0 544 275" fill="none" xmlns="http://www.w3.org/2000/svg">
<path d="M45.5593 115.845C45.5593 109.574 45.4395 100.116 45.0854 90.1836C55.9656 89.5899 67.6739 88.7618 71.9291 88.1732C80.0906 86.8711 79.9708 78.5899 70.7468 80.1316C66.0176 81.0743 55.377 81.9024 44.9708 82.8503C44.6114 73.8607 44.4968 64.9909 44.377 58.3711C52.7729 57.4232 61.2885 57.3034 70.2781 57.8972C79.1479 58.4857 85.7676 58.1316 84.8197 49.0274C83.877 39.918 75.5958 40.2774 68.6218 40.6316C64.601 40.9857 54.5489 42.9961 43.9031 46.1889C42.8406 35.6628 37.3979 31.7618 31.3666 32.2357C24.8666 32.5899 18.476 36.6107 15.5229 46.8972C14.9291 48.9076 14.5749 51.7461 14.4551 55.5326C11.2624 56.8295 8.54369 57.8972 6.65306 58.7253C-1.86256 63.1003 -0.560481 67.7097 7.59577 65.4649C9.84577 64.8711 11.976 64.2826 14.2208 63.8086C14.2208 85.4493 16.9395 112.767 18.2416 119.392C20.726 133.465 29.9499 136.303 34.6791 135.356C40.002 134.413 45.5593 132.043 45.5593 115.845Z" fill="#8DA6AF"/>
<path d="M97.2303 71.9701C93.0949 71.9701 89.6626 75.8712 88.7147 83.793C87.298 95.8555 90.7251 121.048 91.673 126.84C92.7355 132.517 96.7563 135.475 101.017 134.882C106.574 134.293 107.637 130.272 108.939 124.475C109.887 118.684 107.522 93.7305 106.574 84.6212C105.626 75.517 101.845 71.9701 97.2303 71.9701ZM93.3293 33.418C89.4282 33.0639 83.1574 36.9649 84.6938 45.5951C85.7616 52.2201 88.0063 57.543 90.7251 63.5743C92.9751 69.1316 97.4699 67.5951 99.2407 62.1524C101.017 56.5951 101.251 50.5639 101.725 45.0066C102.319 35.8972 97.8241 33.7722 93.3293 33.418Z" fill="#8DA6AF"/>
<path d="M156.242 29.7514C154.94 25.3764 150.799 24.0743 143.705 25.9649C143.705 22.2982 143.585 18.7514 143.351 15.3243C142.997 8.69927 139.565 0.897186 131.408 0.897186C124.075 0.897186 123.601 11.1836 122.653 18.7514C122.179 23.8347 121.825 29.5118 121.71 35.6628C118.986 37.3191 116.507 38.9753 114.377 40.5118C107.638 45.5951 112.955 48.4336 118.518 47.8451C119.346 47.7253 120.408 47.7253 121.71 47.3711C122.179 82.2566 126.794 124.001 128.21 131.574C129.752 141.626 135.07 147.184 137.32 131.574C138.028 125.543 139.565 112.413 140.867 96.4493C142.049 80.4857 143.111 61.5639 143.585 43.8243C145.361 43.3503 147.132 42.7566 148.908 42.168C157.304 39.3295 157.184 33.0639 156.242 29.7514Z" fill="#8DA6AF"/>
<path d="M155.29 76.6993C155.29 85.8034 159.191 119.152 160.139 127.194C161.087 135.356 171.967 136.658 172.556 127.908C174.446 99.7618 180.009 91.6003 184.972 87.2253C189.702 83.0847 193.368 84.7409 192.9 90.7722C192.426 96.8034 191.478 108.986 188.759 124.241C186.275 138.074 202.832 138.788 206.259 129.918C211.936 115.371 215.483 91.9545 212.29 81.1941C209.097 70.4336 201.764 70.9024 195.264 71.8503C187.811 72.7982 181.545 81.7826 176.577 89.8243C174.566 93.1368 173.858 91.8347 173.858 88.8816C173.858 86.9857 173.978 84.3868 173.03 73.0326C171.493 55.8868 155.29 63.4545 155.29 76.6993Z" fill="#8DA6AF"/>
<path d="M243.979 70.9024C230.734 69.3659 220.208 81.1941 218.318 99.0482C216.422 116.908 221.63 128.022 229.786 134.053C235.703 138.788 243.385 134.647 239.958 129.324C234.875 121.402 234.401 115.251 234.989 105.793C235.344 100.35 238.302 90.1837 241.26 85.3347C244.099 80.6003 248.474 77.7618 248.12 87.1055C247.646 96.5691 242.443 103.428 234.401 107.803C229.312 110.642 230.854 115.017 235.229 112.178C246.344 105.199 253.323 93.2566 252.969 81.7826C252.609 75.1628 249.062 71.7305 243.979 70.9024Z" fill="#8DA6AF"/>
<path d="M277.204 72.3243C291.871 58.7253 278.746 49.5014 267.037 60.2618C248.35 77.6472 254.381 93.1368 266.798 102.954C274.131 108.746 278.98 115.132 274.251 122.111C270.11 127.908 264.433 130.861 256.157 136.303C235.699 149.668 254.381 162.085 266.089 154.986C272.121 151.204 283.709 137.96 288.084 128.85C295.418 113.595 291.751 106.147 283.829 99.7618C277.204 94.5587 261.834 86.7514 277.204 72.3243Z" fill="#8DA6AF"/>
<path d="M318.118 72.3243C332.785 58.7253 319.66 49.5014 307.951 60.2618C289.264 77.6472 295.295 93.1368 307.712 102.954C315.045 108.746 319.894 115.132 315.165 122.111C311.024 127.908 305.347 130.861 297.071 136.303C276.613 149.668 295.295 162.085 307.003 154.986C313.035 151.204 324.623 137.96 328.998 128.85C336.331 113.595 332.665 106.147 324.743 99.7618C318.118 94.5587 302.748 86.7514 318.118 72.3243Z" fill="#8DA6AF"/>
<path d="M389.073 40.7461C349.219 58.2514 340.584 95.8555 338.693 108.038C337.037 116.673 339.047 131.574 353.475 133.465C366.131 135.001 374.172 125.303 377.719 121.402C380.318 118.444 378.193 116.908 376.297 118.21C372.162 121.402 370.152 123.647 365.183 125.184C360.334 126.486 353.001 124.241 355.485 113.361C359.626 95.9753 374.287 76.3451 395.933 59.668C400.662 56.0066 401.61 49.2618 399.126 44.1784C396.402 39.3295 393.448 38.8555 389.073 40.7461Z" fill="#8DA6AF"/>
<path d="M429.274 11.0639C408.935 12.4857 390.721 54.2305 391.669 96.2149C391.669 100.116 391.904 112.767 395.69 122.35C400.419 134.293 416.977 138.194 427.029 122.585C429.867 118.21 426.789 116.199 424.544 118.444C421.706 120.928 417.565 122.939 415.675 120.22C413.43 117.027 409.878 104.845 411.774 85.5691C433.534 75.7514 446.305 55.4128 447.841 37.9076C449.143 24.1941 440.747 10.4753 429.274 11.0639ZM441.81 42.7566C438.024 62.0378 420.878 74.8087 413.31 78.5899C420.878 42.2878 432.94 28.5691 437.315 28.5691C441.93 28.5691 443.346 35.3087 441.81 42.7566Z" fill="#8DA6AF"/>
<path d="M437.783 73.5066C436.012 78.9441 435.304 105.908 436.721 115.251C438.023 124.949 442.872 132.871 451.741 131.928C460.372 130.981 465.46 123.173 467.705 119.392C469.95 115.606 470.778 114.069 470.424 118.21C470.07 122.111 470.543 124.949 470.898 128.142C471.606 134.882 480.476 135.595 485.445 132.283C487.215 130.981 488.403 129.324 488.757 127.079C489.585 122.704 490.054 114.189 490.174 105.553C490.293 101.298 490.174 97.1576 489.939 93.1368C489.465 85.0951 488.757 80.6003 485.564 78.1212C480.83 74.5691 473.856 75.8712 472.908 82.8503C471.606 94.0847 471.132 105.079 466.288 114.423C463.09 120.454 460.611 120.454 459.189 117.142C457.773 113.949 458.007 83.4389 458.955 76.9337C460.017 70.4337 457.418 66.5274 451.741 65.4649C445.945 64.4024 439.793 66.8816 437.783 73.5066Z" fill="#8DA6AF"/>
<path d="M522.69 37.1993C525.528 27.1472 512.518 23.3659 507.789 33.1784C500.81 47.9597 497.737 65.3451 497.028 81.4284C496.32 97.6316 498.211 112.413 501.992 122.35C505.07 131.1 515.242 135.595 525.055 129.444C534.518 123.413 540.784 112.767 543.028 99.5222C545.867 81.668 536.997 72.2045 527.065 71.6159C520.799 71.2618 520.914 78.2357 526.002 79.418C532.388 81.3139 538.065 83.9128 536.763 98.5795C536.169 105.908 531.914 113.595 528.721 117.027C526.237 119.866 522.096 121.048 520.799 117.856C516.065 105.908 516.539 59.7878 522.69 37.1993Z" fill="#8DA6AF"/>
<path d="M137.314 208.455C125.606 233.054 131.637 258.361 145.002 267.585C154.934 274.684 169.481 262.736 171.377 259.07C173.268 255.877 178.351 245.71 178.945 234.476C179.887 213.658 172.439 203.726 164.518 198.997C158.841 195.564 157.064 200.768 162.387 203.965C179.059 214.372 175.158 241.096 170.429 251.856C168.064 257.179 164.044 259.07 160.851 255.643C159.783 254.58 158.841 252.804 158.012 250.32C156.476 245.471 156.356 239.205 156.591 232.465C156.71 229.153 156.83 225.721 157.184 222.059C157.538 218.507 157.773 214.96 157.893 211.413C158.012 207.866 157.304 205.262 155.648 203.606C153.872 202.07 151.861 201.241 149.617 201.127C144.882 201.007 139.564 203.726 137.314 208.455Z" fill="#8DA6AF"/>
<path d="M187.571 214.606C187.571 223.71 191.472 257.059 192.42 265.101C193.368 273.262 204.248 274.564 204.837 265.814C206.727 237.669 212.29 229.507 217.253 225.132C221.982 220.991 225.649 222.648 225.18 228.679C224.706 234.71 223.758 246.892 221.04 262.148C218.555 275.981 235.113 276.695 238.54 267.825C244.217 253.278 247.764 229.861 244.571 219.101C241.378 208.34 234.045 208.809 227.545 209.757C220.092 210.705 213.826 219.689 208.857 227.731C206.847 231.044 206.139 229.741 206.139 226.788C206.139 224.892 206.258 222.294 205.311 210.939C203.774 193.794 187.571 201.361 187.571 214.606Z" fill="#8DA6AF"/>
<path d="M288.202 148.971C267.864 150.392 249.65 192.137 250.598 234.122C250.598 238.023 250.833 250.674 254.619 260.257C259.348 272.2 275.906 276.101 285.958 260.491C288.796 256.116 285.718 254.106 283.473 256.351C280.635 258.835 276.494 260.846 274.604 258.127C272.359 254.934 268.807 242.752 270.702 223.476C292.463 213.658 305.234 193.32 306.77 175.814C308.072 162.101 299.676 148.382 288.202 148.971ZM300.739 180.663C296.952 199.945 279.807 212.715 272.239 216.497C279.807 180.195 291.869 166.476 296.244 166.476C300.859 166.476 302.275 173.215 300.739 180.663Z" fill="#8DA6AF"/>
<path d="M307.238 209.877C303.103 209.877 299.67 213.778 298.722 221.7C297.306 233.762 300.733 258.955 301.681 264.747C302.743 270.424 306.764 273.382 311.025 272.788C316.582 272.2 317.644 268.179 318.946 262.382C319.894 256.59 317.53 231.637 316.582 222.528C315.634 213.424 311.853 209.877 307.238 209.877ZM303.337 171.325C299.436 170.971 293.165 174.872 294.702 183.502C295.769 190.127 298.014 195.45 300.733 201.481C302.983 207.038 307.478 205.502 309.249 200.059C311.025 194.502 311.259 188.471 311.733 182.913C312.327 173.804 307.832 171.679 303.337 171.325Z" fill="#8DA6AF"/>
<path d="M325.921 214.606C325.921 223.71 329.822 257.059 330.77 265.101C331.718 273.262 342.598 274.564 343.187 265.814C345.078 237.669 350.64 229.507 355.604 225.132C360.333 220.991 363.999 222.648 363.531 228.679C363.057 234.71 362.109 246.892 359.39 262.148C356.906 275.981 373.463 276.695 376.89 267.825C382.567 253.278 386.114 229.861 382.921 219.101C379.729 208.34 372.395 208.809 365.895 209.757C358.442 210.705 352.176 219.689 347.208 227.731C345.197 231.044 344.489 229.741 344.489 226.788C344.489 224.892 344.609 222.294 343.661 210.939C342.124 193.794 325.921 201.361 325.921 214.606Z" fill="#8DA6AF"/>
<path d="M414.61 208.809C401.365 207.273 390.839 219.101 388.949 236.955C387.053 254.814 392.261 265.929 400.417 271.96C406.334 276.695 414.016 272.554 410.589 267.231C405.506 259.309 405.032 253.158 405.621 243.7C405.975 238.257 408.933 228.09 411.891 223.241C414.73 218.507 419.105 215.669 418.751 225.012C418.277 234.476 413.074 241.335 405.032 245.71C399.943 248.549 401.485 252.924 405.86 250.085C416.975 243.106 423.954 231.163 423.6 219.689C423.24 213.07 419.693 209.637 414.61 208.809Z" fill="#8DA6AF"/>
</svg>
