<svg xmlns="http://www.w3.org/2000/svg" xml:space="preserve" width="800" height="800" viewBox="0 0 512 512"><path d="M437.019 74.98C388.668 26.628 324.38 0 256 0S123.333 26.628 74.98 74.98 0 187.62 0 256c0 51.485 15.154 100.938 43.874 143.34L.69 500.106c-1.343 3.134-.607 6.966 1.798 9.381 2.495 2.506 6.519 3.206 9.714 1.684l96.358-45.885C151.858 495.866 202.721 512 256 512c68.38 0 132.668-26.628 181.019-74.98C485.371 388.667 512 324.38 512 256s-26.629-132.667-74.981-181.02z" style="fill:#20a83e"/><circle cx="256" cy="256" r="213.333" style="fill:#e5e5e5"/><circle cx="256" cy="256" r="187.733" style="fill:#fff"/><path d="m392.391 342.641-7.673-41.561a8.536 8.536 0 0 0-6.718-6.818l-60.339-12.067a8.536 8.536 0 0 0-7.709 2.334l-24.514 24.514c-41.302-18.507-64.226-41.478-84.396-84.555l24.435-24.436a8.534 8.534 0 0 0 2.334-7.708l-12.068-60.34a8.535 8.535 0 0 0-6.819-6.718l-41.561-7.673a8.536 8.536 0 0 0-3.44.07 59.558 59.558 0 0 0-28.956 15.994c-13.801 13.801-19.075 33.938-15.252 58.237 6.418 40.801 26.409 97.583 63.289 134.61l.502.5c37.001 36.855 93.782 56.846 134.583 63.265 5.14.809 10.092 1.21 14.838 1.21 17.694 0 32.517-5.581 43.4-16.462a59.573 59.573 0 0 0 15.993-28.957c.258-1.129.282-2.3.071-3.439z" style="fill:#20a83e"/><path d="M349.996 376.428c-4.747 0-9.698-.401-14.838-1.21-40.801-6.419-97.583-26.41-134.583-63.265l-.502-.5c-36.88-37.027-56.87-93.809-63.289-134.61-3.323-21.118.236-39.088 10.283-52.492a59.717 59.717 0 0 0-12.097 9.328c-13.801 13.801-19.075 33.938-15.252 58.237 6.418 40.801 26.409 97.583 63.289 134.61l.502.5c37.001 36.855 93.782 56.846 134.583 63.265 5.14.809 10.092 1.21 14.838 1.21 17.694 0 32.517-5.581 43.4-16.462a59.849 59.849 0 0 0 5.463-6.284c-9.046 5.081-19.756 7.673-31.797 7.673z" style="fill:#189433"/></svg>