<svg width="24" height="24" viewBox="0 0 24 24" fill="none" xmlns="http://www.w3.org/2000/svg">
<mask id="mask0_51_31" style="mask-type:luminance" maskUnits="userSpaceOnUse" x="0" y="0" width="24" height="24">
<path d="M0.375 0.755371H23.3646V23.745H0.375V0.755371Z" fill="white"/>
</mask>
<g mask="url(#mask0_51_31)">
<path  d="M1.06756 23.7084C0.900889 23.7084 0.739431 23.6459 0.619639 23.5313C0.442555 23.3647 0.374848 23.1199 0.437348 22.8907L1.89047 17.5105C0.994639 15.8647 0.525889 14.0105 0.525889 12.1303C0.525889 5.88029 5.64568 0.791748 11.9426 0.791748C18.2394 0.791748 23.3644 5.88029 23.3644 12.1303C23.3644 18.3803 18.2394 23.4636 11.9426 23.4636C10.0103 23.4636 8.10401 22.9792 6.42172 22.0522L1.26547 23.6772C1.20297 23.698 1.13526 23.7084 1.06756 23.7084ZM6.49985 20.7032C6.61443 20.7032 6.72901 20.7345 6.82797 20.7917C8.37485 21.6928 10.1405 22.172 11.9426 22.172C17.5207 22.172 22.0623 17.6667 22.0623 12.1303C22.0623 6.59383 17.5207 2.08862 11.9426 2.08862C6.36964 2.08862 1.82797 6.59383 1.82797 12.1303C1.82797 13.8751 2.28631 15.599 3.1561 17.1042C3.23943 17.2501 3.26547 17.4272 3.2186 17.5938L2.00506 22.0834L6.30193 20.7345C6.36443 20.7136 6.43214 20.7032 6.49985 20.7032Z" fill="black"/>
</g>
<path  d="M11.9425 18.2813C11.5832 18.2813 11.2915 17.9949 11.2915 17.6355V11.2032C11.2915 10.8438 11.5832 10.5574 11.9425 10.5574C12.3071 10.5574 12.5988 10.8438 12.5988 11.2032V17.6355C12.5988 17.9949 12.3071 18.2813 11.9425 18.2813Z" fill="black"/>
<path d="M11.9429 8.85425C11.2137 8.85425 10.6147 8.2605 10.6147 7.53654C10.6147 6.80737 11.2137 6.21362 11.9429 6.21362C12.6772 6.21362 13.2762 6.80737 13.2762 7.53654C13.2762 8.2605 12.6772 8.85425 11.9429 8.85425ZM11.9429 7.073C11.6877 7.073 11.4793 7.28133 11.4793 7.53654C11.4793 7.79175 11.6877 7.99487 11.9429 7.99487C12.2033 7.99487 12.4116 7.79175 12.4116 7.53654C12.4116 7.28133 12.2033 7.073 11.9429 7.073Z" fill="black"/>
</svg>
