<svg width="100" height="88" viewBox="0 0 100 88" fill="none" xmlns="http://www.w3.org/2000/svg">
<mask id="mask0_43_182" style="mask-type:luminance" maskUnits="userSpaceOnUse" x="22" y="0" width="60" height="88">
<path d="M22 0.203125H82V87.8438H22V0.203125Z" fill="white"/>
</mask>
<g mask="url(#mask0_43_182)">
<path d="M27.7657 0.203125C27.7657 0.203125 34.7761 20.849 35.4427 23.7083C35.4427 23.7083 37.1927 28.5417 35.4427 31.1719C31.6407 38.1719 26.6771 45.3125 24.4375 52.9948C23.3177 56.8229 23.073 60.8125 23.0886 64.7865C23.1302 72.5781 24.1927 80.5104 26.8907 87.8385H77.7084C80.4115 80.5104 81.4688 72.5781 81.5105 64.7865C81.5313 60.8125 81.2813 56.8229 80.1615 52.9948C77.9219 45.3125 72.9636 38.1719 69.1615 31.1719C67.4063 28.5417 69.1615 23.7083 69.1615 23.7083C69.823 20.849 76.8386 0.203125 76.8386 0.203125H27.7657Z" fill="#EEB79E"/>
</g>
<mask id="mask1_43_182" style="mask-type:luminance" maskUnits="userSpaceOnUse" x="27" y="0" width="51" height="7">
<path d="M27.3333 0.203125H77.9999V6.66667H27.3333V0.203125Z" fill="white"/>
</mask>
<g mask="url(#mask1_43_182)">
<path d="M74.8177 6.19271C75.9688 2.76042 76.8385 0.203125 76.8385 0.203125H27.7656C27.7656 0.203125 28.6354 2.76042 29.7865 6.19271H74.8177Z" fill="#3D4176"/>
</g>
<mask id="mask2_43_182" style="mask-type:luminance" maskUnits="userSpaceOnUse" x="51" y="64" width="3" height="24">
<path d="M51.3333 64H53.9999V87.8438H51.3333V64Z" fill="white"/>
</mask>
<g mask="url(#mask2_43_182)">
<path d="M52.302 64.8649V87.8389" stroke="#DEA08D" stroke-width="1.50603" stroke-miterlimit="10"/>
</g>
<path d="M54.0834 36.5313C54.0834 37.4844 53.6667 38.2604 53.1563 38.2604C52.6407 38.2604 52.2292 37.4844 52.2292 36.5313C52.2292 35.5729 52.6407 34.7969 53.1563 34.7969C53.6667 34.7969 54.0834 35.5729 54.0834 36.5313Z" fill="#DEA08D"/>
<path d="M53.1562 8.93769V34.1304" stroke="#DEA08D" stroke-width="1.00402" stroke-miterlimit="10"/>
<mask id="mask3_43_182" style="mask-type:luminance" maskUnits="userSpaceOnUse" x="27" y="0" width="53" height="35">
<path d="M27.3333 0.203125H79.3333V34.6667H27.3333V0.203125Z" fill="white"/>
</mask>
<g mask="url(#mask3_43_182)">
<path d="M42.0938 14.7921C42.0938 14.7921 41.7396 19.5786 45.4584 19.5786H60.3282C60.3282 19.5786 64.573 19.938 64.9271 14.7921" stroke="#DEA08D" stroke-width="1.00402" stroke-miterlimit="10"/>
</g>
<path d="M43.5157 24.9013C43.5157 24.9013 43.2136 29.6981 46.3542 29.6981H58.9167C58.9167 29.6981 62.5105 30.0471 62.8126 24.9013" stroke="#DEA08D" stroke-width="1.00402" stroke-miterlimit="10"/>
<path d="M32.8542 45.8387L39.047 47.4377L44.3595 56.2241" stroke="#DEA08D" stroke-width="1.00402" stroke-miterlimit="10"/>
<path d="M71.7501 45.8387L65.5522 47.4377L60.2449 56.2241" stroke="#DEA08D" stroke-width="1.00402" stroke-miterlimit="10"/>
<path d="M24.5624 52.3179C24.5624 52.3179 50.8176 61.672 79.953 52.3179C79.953 52.3179 80.3541 53.3022 80.8645 55.9793C80.8645 55.9793 57.0103 60.3387 52.302 74.8908C52.302 74.8908 46.651 59.5887 23.5989 56.2554C23.5989 56.2554 23.9687 54.0731 24.5624 52.3179Z" fill="#3D4176"/>
<mask id="mask4_43_182" style="mask-type:luminance" maskUnits="userSpaceOnUse" x="0" y="20" width="100" height="23">
<path d="M0.145752 20H99.7395V42.6667H0.145752V20Z" fill="white"/>
</mask>
<g mask="url(#mask4_43_182)">
<path d="M99.6926 38.2969C66.526 25.3438 33.3593 51.1511 0.192627 38.4115V24.3646C33.3593 37.099 66.526 11.2969 99.6926 24.2553V38.2969Z" fill="#FABB4C"/>
</g>
<mask id="mask5_43_182" style="mask-type:luminance" maskUnits="userSpaceOnUse" x="0" y="24" width="8" height="18">
<path d="M0.145752 24H7.33325V41.3333H0.145752V24Z" fill="white"/>
</mask>
<g mask="url(#mask5_43_182)">
<path d="M6.35409 31.1252V26.3022C4.302 25.7918 2.24471 25.146 0.192627 24.3647V38.4116C2.24471 39.1981 4.302 39.8439 6.35409 40.3543V35.6877C2.45304 34.4272 2.45304 30.2189 6.35409 31.1252Z" fill="#3D4176"/>
</g>
<path d="M10.1145 29.3439C9.78638 29.2814 9.44784 29.2189 9.1145 29.1564V26.9116C9.44784 26.9741 9.78638 27.0418 10.1145 27.0991V29.3439Z" fill="#3D4176"/>
<path d="M12.6251 29.7188C12.2917 29.6823 11.9584 29.6354 11.6199 29.5833V27.3438C11.9584 27.3906 12.2917 27.4375 12.6251 27.4792V29.7188Z" fill="#3D4176"/>
<path d="M15.1301 29.995C14.7968 29.9689 14.4635 29.9377 14.1301 29.9012V27.6616C14.4635 27.6929 14.7968 27.7241 15.1301 27.7554V29.995Z" fill="#3D4176"/>
<path d="M17.6407 30.1616C17.3074 30.146 16.9688 30.1304 16.6355 30.1095V27.8647C16.9688 27.8856 17.3074 27.9064 17.6407 27.922V30.1616Z" fill="#3D4176"/>
<path d="M20.1458 32.3748C19.8125 32.3696 19.4792 32.3644 19.1406 32.354V27.979C19.4792 27.9842 19.8125 27.9894 20.1458 27.9946V32.3748Z" fill="#3D4176"/>
<path d="M22.7761 30.2238C22.4428 30.2342 22.1095 30.2394 21.7761 30.2446V27.9946C22.1095 27.9894 22.4428 27.9894 22.7761 27.979V30.2238Z" fill="#3D4176"/>
<path d="M25.2865 30.1252C24.9531 30.1408 24.6198 30.1616 24.2812 30.172V27.9325C24.6198 27.9168 24.9531 27.9012 25.2865 27.8804V30.1252Z" fill="#3D4176"/>
<path d="M27.7917 29.9582C27.4636 29.9842 27.1251 30.005 26.7917 30.0311V27.7915C27.1251 27.7655 27.4636 27.7394 27.7917 27.7134V29.9582Z" fill="#3D4176"/>
<path d="M30.3021 29.7186C29.9688 29.755 29.6354 29.7915 29.2969 29.8228V27.578C29.6354 27.5467 29.9688 27.5155 30.3021 27.479V29.7186Z" fill="#3D4176"/>
<path d="M32.8072 31.5625C32.4791 31.6042 32.1405 31.6458 31.802 31.6875V27.3073C32.1405 27.2708 32.4791 27.2292 32.8072 27.1875V31.5625Z" fill="#3D4176"/>
<path d="M35.4427 29.0677C35.1094 29.1198 34.7708 29.1615 34.4375 29.2083V26.9688C34.7708 26.9219 35.1094 26.875 35.4427 26.8281V29.0677Z" fill="#3D4176"/>
<path d="M37.9478 28.6823C37.6145 28.7344 37.2812 28.7865 36.9426 28.8385V26.5938C37.2812 26.5469 37.6145 26.4896 37.9478 26.4375V28.6823Z" fill="#3D4176"/>
<path d="M40.4531 28.2604C40.125 28.3125 39.7865 28.375 39.4531 28.4271V26.1875C39.7865 26.125 40.125 26.0729 40.4531 26.0156V28.2604Z" fill="#3D4176"/>
<path d="M42.9635 27.8071C42.6301 27.8644 42.2968 27.9269 41.9583 27.9842V25.7446C42.2968 25.6873 42.6301 25.6248 42.9635 25.5571V27.8071Z" fill="#3D4176"/>
<path d="M45.4688 29.4688C45.1354 29.5365 44.8021 29.5937 44.4688 29.6615V25.2813C44.8021 25.2187 45.1354 25.1563 45.4688 25.0938V29.4688Z" fill="#3D4176"/>
<path d="M48.1041 26.8283C47.7708 26.8908 47.4374 26.9585 47.0989 27.021V24.7762C47.4374 24.7137 47.7708 24.6512 48.1041 24.5835V26.8283Z" fill="#3D4176"/>
<path d="M50.6095 26.3385C50.2761 26.4063 49.9428 26.4687 49.6042 26.5365V24.2917C49.9428 24.224 50.2761 24.1563 50.6095 24.0938V26.3385Z" fill="#3D4176"/>
<path d="M53.1145 25.849C52.7864 25.9167 52.4478 25.9792 52.1145 26.0417V23.8021C52.4478 23.7344 52.7864 23.6719 53.1145 23.6094V25.849Z" fill="#3D4176"/>
<path d="M55.6251 25.375C55.2917 25.4323 54.9584 25.5 54.6199 25.5573V23.3177C54.9584 23.2552 55.2917 23.1927 55.6251 23.125V25.375Z" fill="#3D4176"/>
<path d="M58.1301 27.0469C57.802 27.1094 57.4635 27.1667 57.1301 27.2292V22.849C57.4635 22.7917 57.802 22.7292 58.1301 22.6719V27.0469Z" fill="#3D4176"/>
<path d="M60.7657 24.453C60.4272 24.5155 60.099 24.5675 59.7605 24.6248V22.3853C60.099 22.328 60.4272 22.2655 60.7657 22.2134V24.453Z" fill="#3D4176"/>
<path d="M63.2708 24.0573C62.9426 24.1094 62.6041 24.1563 62.2708 24.2135V21.9635C62.6041 21.9167 62.9426 21.8646 63.2708 21.8125V24.0573Z" fill="#3D4176"/>
<path d="M65.7813 23.6925C65.448 23.7394 65.1147 23.7863 64.7761 23.8332V21.5884C65.1147 21.5415 65.448 21.4946 65.7813 21.4478V23.6925Z" fill="#3D4176"/>
<path d="M68.2865 23.38C67.9531 23.4165 67.6198 23.4582 67.2812 23.4998V21.255C67.6198 21.2134 67.9531 21.1769 68.2865 21.1353V23.38Z" fill="#3D4176"/>
<path d="M70.7917 25.2552C70.4636 25.2813 70.1251 25.3177 69.7917 25.3542V20.9687C70.1251 20.9427 70.4636 20.9115 70.7917 20.875V25.2552Z" fill="#3D4176"/>
<path d="M73.4271 22.9168C73.0938 22.9377 72.7604 22.9637 72.4219 22.9793V20.7397C72.7604 20.7137 73.0938 20.6929 73.4271 20.6772V22.9168Z" fill="#3D4176"/>
<path d="M75.9324 22.7917C75.6042 22.8073 75.2657 22.8177 74.9324 22.8281V20.5885C75.2657 20.5729 75.6042 20.5573 75.9324 20.5469V22.7917Z" fill="#3D4176"/>
<path d="M78.4427 22.745C78.1042 22.745 77.776 22.7502 77.4375 22.7502V20.5106C77.776 20.5054 78.1042 20.5054 78.4427 20.5054V22.745Z" fill="#3D4176"/>
<path d="M80.948 22.7813C80.6199 22.7708 80.2813 22.7604 79.948 22.7552V20.5156C80.2813 20.5208 80.6199 20.5313 80.948 20.5365V22.7813Z" fill="#3D4176"/>
<path d="M83.4531 25.0467C83.1198 25.0207 82.7865 24.9998 82.4531 24.979V20.604C82.7865 20.6248 83.1198 20.6457 83.4531 20.6717V25.0467Z" fill="#3D4176"/>
<path d="M86.0885 23.1561C85.7551 23.1144 85.4218 23.0832 85.0833 23.0467V20.8071C85.4218 20.8384 85.7551 20.8748 86.0885 20.9113V23.1561Z" fill="#3D4176"/>
<path d="M88.5938 23.4998C88.2604 23.4425 87.9271 23.3957 87.5938 23.3488V21.104C87.9271 21.1509 88.2604 21.203 88.5938 21.255V23.4998Z" fill="#3D4176"/>
<path d="M91.1041 23.9583C90.7708 23.8854 90.4374 23.8229 90.0989 23.7552V21.5156C90.4374 21.5781 90.7708 21.6458 91.1041 21.7083V23.9583Z" fill="#3D4176"/>
<path d="M93.6094 24.5365C93.2813 24.4479 92.9427 24.3646 92.6094 24.2865V22.0469C92.9427 22.1198 93.2813 22.2083 93.6094 22.2917V24.5365Z" fill="#3D4176"/>
<path d="M96.1197 27.38C95.7812 27.2707 95.453 27.1717 95.1145 27.078V22.6978C95.453 22.7967 95.7812 22.8957 96.1197 22.9998V27.38Z" fill="#3D4176"/>
</svg>
