<svg width="48" height="48" viewBox="0 0 48 48" fill="none" xmlns="http://www.w3.org/2000/svg">
<path d="M37.0796 8.23993L26.0796 4.11993C24.9396 3.69993 23.0796 3.69993 21.9396 4.11993L10.9396 8.23993C8.81961 9.03993 7.09961 11.5199 7.09961 13.7799V29.9799C7.09961 31.5999 8.15961 33.7399 9.45961 34.6999L20.4596 42.9199C22.3996 44.3799 25.5796 44.3799 27.5196 42.9199L38.5196 34.6999C39.8196 33.7199 40.8796 31.5999 40.8796 29.9799V13.7799C40.8996 11.5199 39.1796 9.03993 37.0796 8.23993ZM30.9596 19.4399L22.3596 28.0399C22.0596 28.3399 21.6796 28.4799 21.2996 28.4799C20.9196 28.4799 20.5396 28.3399 20.2396 28.0399L17.0396 24.7999C16.4596 24.2199 16.4596 23.2599 17.0396 22.6799C17.6196 22.0999 18.5796 22.0999 19.1596 22.6799L21.3196 24.8399L28.8596 17.2999C29.4396 16.7199 30.3996 16.7199 30.9796 17.2999C31.5596 17.8799 31.5596 18.8599 30.9596 19.4399Z" fill="white"/>
</svg>
