<svg width="450" height="auto" viewBox="0 0 813 606" fill="none" xmlns="http://www.w3.org/2000/svg">
<path d="M257.802 76.9688C257.802 76.9688 255.646 94.5834 254.385 110.943C253.125 127.297 254.385 151.385 253.964 153.016C253.547 154.646 249.917 163.005 236.776 163.005C223.641 163.005 213.125 153.542 204.979 141.078C196.833 128.609 193.995 88.1667 196.151 79.9636C198.307 71.7604 215.755 55.8802 216.385 49.4115C217.016 42.9427 231.839 39.9427 243.453 45.099C255.068 50.25 258.906 68.7084 257.802 76.9688Z" fill="#F3C49D"/>
<path d="M251.599 164.271C251.599 164.271 253.755 181.047 246.026 190.094C243.635 193.464 241.917 197.156 240.875 201.161C239.833 205.161 239.536 209.224 239.984 213.339C239.984 213.339 224.531 219.385 213.339 214.651C202.141 209.917 199.146 196.563 198.307 186.672C197.724 180.911 198.443 175.323 200.458 169.896C200.458 169.896 207.344 165.161 206.505 146.651C206.505 146.651 210.812 156.12 226.687 163.427C242.557 170.74 250.76 161.693 250.76 161.693L251.599 164.271Z" fill="#F3C49D"/>
<path d="M183.271 182.359C182.573 193.135 182.714 203.901 183.693 214.651C185.427 223.698 178.437 240.052 170.818 247.787C163.198 255.516 155.786 276.182 153.63 277.917C151.474 279.656 148.057 279.234 148.375 273.188C148.687 267.135 150.109 254.672 150.109 254.672C147.766 263.891 146.016 273.214 144.854 282.651C141.437 305.479 132.396 351.917 130.24 353.651C128.089 355.385 121.62 349.76 108.745 355.385C95.8698 361.016 93.7135 365.906 93.7135 365.906C97.2656 362.87 101.214 360.5 105.568 358.807C109.922 357.109 114.432 356.182 119.099 356.016C133.708 356.016 139.281 355.177 164.245 349.13C172.849 347.229 181.115 344.349 189.036 340.49C196.958 336.635 204.323 331.906 211.13 326.302C216.703 321.042 219.276 294.75 219.276 294.75C219.276 294.75 223.167 307.214 229.156 311.104C235.151 314.995 239.146 342.188 236.776 346.287C234.411 350.391 199.984 375.109 179.594 384.573C163.708 392.458 147.224 398.771 130.135 403.505C116.365 406.927 104.75 414.026 97.4427 415.13C90.1406 416.234 82.8333 399.354 81.6771 382.417C80.5208 365.484 84.25 343.292 91.1354 310.578C98.0208 277.865 100.177 258.932 106.167 240C112.161 221.068 118.203 211.182 141.437 199.135L183.484 177.208L183.271 182.359Z" fill="#F3C49D"/>
<path d="M99.8646 504.167C99.8646 504.167 132.974 512.318 121.781 532.99C110.583 553.656 102.016 551.078 103.698 560.969C105.38 570.854 120.464 580.74 118.313 591.099C116.156 601.464 100.703 603.146 95.0781 603.568C89.4531 603.984 77 608.823 72.7396 602.25C68.4844 595.677 72.7396 594.943 80.4688 593.625C88.1927 592.313 83.8854 583.109 77.8906 576.005C71.901 568.906 67.3802 547.609 65.8542 536.88C64.3333 526.151 62.8594 519.26 62.8594 519.26C62.8594 519.26 97.7083 507.167 99.8646 504.167Z" fill="#F3C49D"/>
<path d="M666.922 579.849C667.396 581.318 684.526 576.849 693.99 583.266C703.448 589.682 701.292 600.464 718.063 600.042C734.828 599.62 739.557 591.417 740.87 582.844C742.188 574.271 748.177 570.802 765.787 573.797C783.391 576.797 790.276 568.224 790.276 568.224C790.276 568.224 807.042 577.271 810.932 569.958C814.823 562.651 813.927 558.339 772.672 549.292C758.719 546.089 744.604 544.021 730.318 543.089C716.037 542.151 701.771 542.365 687.526 543.719C671.177 545.031 669.917 546.292 669.917 546.292C669.917 546.292 664.344 571.693 666.922 579.849Z" fill="#F3C49D"/>
<path d="M259.797 81.6979C259.797 81.6979 259.797 150.542 256.38 160.271C252.969 170 258.115 180.943 251.125 190.094C244.135 199.245 243.083 218.755 243.662 225.063C244.24 231.375 247.078 232.531 248.234 241.104C249.391 249.677 253.49 295.01 255.698 317.995C256.505 325.557 258.068 332.964 260.385 340.208C262.703 347.453 265.734 354.391 269.469 361.016C272.885 368.479 271.781 377.052 276.932 391.99C277.901 394.323 279.089 396.542 280.479 398.646C281.875 400.75 283.458 402.703 285.229 404.505C287 406.307 288.922 407.927 291 409.359C293.078 410.792 295.276 412.016 297.589 413.026C296.349 412.406 295.203 411.646 294.156 410.74C293.104 409.839 292.182 408.818 291.38 407.682C290.583 406.552 289.938 405.339 289.438 404.042C288.943 402.75 288.609 401.411 288.443 400.036C287.287 390.307 299.849 405.297 310.359 420.703C320.875 436.115 348.203 430.432 348.203 430.432C348.203 430.432 324.13 428.698 322.974 419.547C321.818 410.396 336.167 411.5 336.745 420.703C336.953 426.823 335.99 432.745 333.854 438.479C337.844 435.906 341.313 432.75 344.255 429.021C347.198 425.292 349.458 421.188 351.042 416.708C354.458 403.505 365.391 405.823 363.078 412.714C360.182 418.438 356.172 423.219 351.042 427.068C352.458 427.021 353.865 426.865 355.26 426.604C356.656 426.344 358.021 425.979 359.365 425.516C360.703 425.052 362 424.49 363.26 423.828C364.516 423.167 365.714 422.417 366.859 421.578C368.005 420.74 369.078 419.818 370.083 418.818C371.094 417.818 372.016 416.75 372.865 415.609C373.714 414.469 374.469 413.276 375.135 412.021C375.802 410.771 376.375 409.474 376.849 408.135C384.891 388.625 385.469 389.203 385.469 397.25C385.469 405.297 375.745 414.448 375.745 414.448C375.745 414.448 387.781 409.87 391.198 387.469C394.615 365.063 399.24 369.115 387.781 350.182C376.323 331.245 367.547 303.109 380.74 315.891C393.927 328.672 377.849 357.177 377.849 357.177C377.849 357.177 399.604 334.245 385.885 310.156C372.172 286.073 369.281 275.552 373.854 252.781C378.427 230.01 374.432 218.385 361.24 208.026C348.047 197.667 365.234 187.354 354.932 167.318C344.63 147.281 333.906 144.391 333.172 135.188C332.438 125.984 342.896 131.818 347.151 142.339C351.412 152.854 349.464 176.734 349.464 176.734C349.464 176.734 360.344 140.604 344.891 130.823C329.438 121.036 317.927 96.9531 309.365 60.8229C300.797 24.6927 274.672 13.4375 254.068 9.43752C233.469 5.44273 219.698 14.6979 225.427 7.70314C231.156 0.70835 253.49 7.12502 259.797 13.4375L266.104 19.75C265.583 18.125 264.922 16.5625 264.115 15.0573C263.313 13.5573 262.375 12.1406 261.313 10.8073C260.25 9.47398 259.073 8.25002 257.787 7.13543C256.5 6.01564 255.12 5.02606 253.651 4.16148C252.182 3.29689 250.651 2.57294 249.052 1.98439C247.448 1.40106 245.813 0.963559 244.13 0.677101C242.453 0.390643 240.76 0.260433 239.057 0.281267C237.349 0.307309 235.662 0.484392 233.995 0.812517C208.766 4.81252 211.656 21.849 201.302 34.1042C198.401 37.2604 195.766 40.625 193.391 44.1927C191.021 47.7656 188.943 51.5 187.156 55.3959C185.375 59.2969 183.906 63.3073 182.75 67.4375C181.599 71.5677 180.771 75.7604 180.276 80.0156C177.385 101.052 171.656 111.573 184.271 124.193C191.859 131.766 198.359 140.182 203.771 149.438C203.771 149.438 197.464 127.089 192.891 105.839C188.318 84.5938 191.734 72.5469 198.62 66.2396C205.505 59.9271 211.234 60.5052 214.073 48.4636C216.912 36.4167 229 37 245.609 42.7292C262.219 48.4636 259.797 81.6979 259.797 81.6979Z" fill="#F6D7C5"/>
<path d="M88.4063 423.547C88.4063 423.547 106.745 465.62 143.432 483.182C180.12 500.75 185.849 493.703 209.344 502.693C232.839 511.688 231.682 519.891 260.953 528.99C290.229 538.089 440.969 558.813 480.495 573.167C520.021 587.526 555.599 585.792 605.479 585.214C655.359 584.63 662.245 581.214 662.245 581.214C662.245 581.214 660.51 551.396 665.661 545.083C665.661 545.083 546.979 535.88 526.38 528.464C505.776 521.052 502.307 515.844 440.391 490.599C378.479 465.354 349.833 451 333.172 458.464C316.51 465.932 294.172 478.557 262.109 474.505C251.719 472.906 241.677 470.083 231.974 466.026C222.276 461.969 213.208 456.802 204.771 450.526C212.24 455.568 220.188 459.693 228.609 462.891C237.036 466.089 245.714 468.276 254.646 469.458C280.927 471.771 294.75 466.563 314.828 458.938C334.906 451.313 336.641 451.104 336.641 451.104C329.5 446.927 323.385 441.583 318.297 435.063C311.99 425.859 308.573 421.281 301.688 427.016C294.802 432.75 266.682 440.219 241.458 436.849C216.229 433.484 183.641 407.609 183.271 406.714C182.906 405.823 221.38 434.536 243.771 434.536C266.156 434.536 284.188 433.115 293.068 428.224C301.953 423.333 306.26 420.495 306.26 420.495C303.63 415.432 300.563 410.646 297.063 406.135C292.49 400.88 292.49 398.667 292.49 402.401C292.49 406.135 300.531 414.182 300.531 414.182C298.766 414.604 296.979 414.714 295.177 414.516C293.37 414.313 291.651 413.818 290.021 413.026C288.073 411.953 286.318 410.62 284.766 409.031C278.5 412.667 271.87 415.406 264.87 417.255C257.865 419.104 250.745 419.99 243.505 419.917C219.432 419.651 208.818 413.604 208.818 413.604C208.818 413.604 233.729 418.865 250.391 416.182C261.229 414.234 271.74 411.167 281.927 406.979L284.24 406.135L278.193 398.667C270.411 401.99 262.365 404.427 254.047 405.979C245.734 407.531 237.349 408.161 228.896 407.875C204.505 405.875 184.167 388.099 182.484 387.203C180.802 386.313 170.714 392.094 170.714 392.094C170.714 392.094 166.979 401.563 182.75 420.495C198.516 439.427 239.198 457.307 240.932 458.359C223.938 452.469 207.885 444.63 192.786 434.854C186.969 430.552 181.833 425.552 177.37 419.859C172.911 414.167 169.292 407.979 166.505 401.297C165.349 396.406 165.667 394.146 165.089 394.99C151.365 400.318 137.349 404.719 123.042 408.188C112.531 410.188 105.276 418.708 99.5469 418.234C98.276 418.141 97.0365 417.911 95.8177 417.552C94.599 417.188 93.4323 416.698 92.3177 416.078C91.2083 415.458 90.1771 414.729 89.224 413.885C88.2708 413.047 87.4167 412.109 86.6719 411.083C83.9115 404.599 81.8542 397.906 80.5 390.995C79.1458 384.078 78.5208 377.104 78.6302 370.057C79.0469 351.125 89.8229 303.792 89.8229 303.792C89.8229 303.792 49.9844 264.089 23.3385 279.604C-3.31251 295.115 -2.05209 316.995 3.52083 339.818C9.09374 362.646 34.9531 421.073 40.9427 446.948C46.9375 472.823 59.4427 517.052 60.7031 516.63C72.3698 513.229 83.7552 509.073 94.8698 504.167C102.177 499.854 92.7135 497.276 90.9792 483.5C89.2448 469.719 84.9375 431.432 82.3594 417.234C79.7865 403.036 74.8958 377.688 63.3333 365.219C52.1042 352.01 41.5937 338.25 31.7969 323.938C31.7969 323.938 55.4479 353.599 63.599 359.646C71.7448 365.693 73.0573 373.844 76.9479 383.313C80.8333 392.781 85.0938 419.125 88.4063 423.547Z" fill="#7893B3"/>
<path d="M268.313 366.063C258.927 363.208 249.906 359.474 241.245 354.859L235.672 350.547C235.672 350.547 219.38 363.224 207.766 372.057C200.568 377.339 192.823 381.635 184.536 384.943C184.536 384.943 208.188 404.719 227.526 404.719C246.87 404.719 268.313 400.036 271.833 397.458C275.354 394.88 268.313 366.063 268.313 366.063Z" fill="#D9D9D9"/>
<path d="M241.297 215.969C241.021 219.995 241.266 223.995 242.036 227.958L243.349 232.271L240.354 237.844C240.354 237.844 236.464 232.271 232.203 236.531C230.719 238.464 229.526 240.568 228.635 242.839C227.74 245.109 227.182 247.458 226.948 249.885C226.948 249.885 223.531 250.729 222.219 260.406C220.906 270.083 219.646 279.339 219.646 279.339C219.646 279.339 216.646 292.698 214.911 301.693C213.177 310.682 211.917 322.359 207.187 326.62C202.458 330.88 174.495 340.396 170.396 343.396L166.089 346.396L166.505 329.198C166.505 329.198 167.823 333.089 178.12 331.771C188.422 330.458 191 330.036 191 330.036C191 330.036 174.234 333.927 166.505 324.776C158.781 315.625 150.161 292.49 151.052 287.964C156.427 275.833 163.151 264.505 171.24 253.99C180.698 241.104 187.583 231.167 187.005 221.276C186.427 211.391 186.161 190.302 186.161 182.573C186.161 174.839 193.469 168.37 196.677 168.792C199.88 169.214 193.995 179.151 194.729 191.406C194.833 193.995 195.266 196.526 196.036 199C196.802 201.474 197.88 203.802 199.266 205.995C200.646 208.182 202.292 210.151 204.198 211.906C206.104 213.661 208.203 215.135 210.5 216.333C219.802 222.38 241.297 215.969 241.297 215.969Z" fill="#D9D9D9"/>
</svg>
