<svg width="195" height="500" viewBox="0 0 195 500" fill="none" xmlns="http://www.w3.org/2000/svg">
<path d="M108.847 318.266C109.682 319.374 110.31 320.547 110.725 321.788C114.723 332.475 111.009 345.348 101.907 354.174C99.1444 356.847 103.985 381.141 103.634 396.628C103.278 412.116 107.092 421.198 105.708 430.545C104.329 439.889 107.435 483.14 101.907 489.246C96.382 495.349 86.356 495.389 81.5269 495.389C76.6978 495.389 72.8961 495.652 69.4382 496.995C65.9763 498.334 56.3061 501.264 58.041 499.393C59.776 497.523 66.3321 493.79 68.055 493.519C69.778 493.244 62.5303 492.979 57.3454 494.056C52.1606 495.13 43.8735 495.124 45.5885 494.321C47.3035 493.519 53.1919 491.117 56.2981 491.117C59.4042 491.117 62.1745 489.246 56.2981 489.784C50.4176 490.321 45.9403 493.79 43.8615 493.034C41.7868 492.275 43.1659 491.426 46.2841 490.095C49.3982 488.762 50.7694 486.891 55.6105 486.626L60.4516 486.36C60.4516 486.36 55.2667 485.027 50.7814 486.897C46.2921 488.768 42.4904 489.033 44.2133 487.7C45.9403 486.369 52.8481 483.431 58.3848 483.958C63.9215 484.489 72.8961 483.156 71.8567 482.628C70.8174 482.097 67.3674 482.363 67.3674 482.363C67.3674 482.363 70.4736 480.226 76.354 481.029C82.2345 481.832 88.4468 480.763 90.8653 481.294C93.2839 481.825 92.9441 483.165 92.9441 483.165C92.9441 483.165 88.4548 451.357 85.3406 441.775C82.2225 432.193 81.8787 423.349 83.9575 416.413C86.0362 409.473 82.2345 382.771 79.812 374.492C77.3934 366.213 67.3794 346.993 65.6445 336.578C63.9095 326.166 71.5249 316.29 87.0636 314.145C93.4718 313.268 103.79 313.284 108.315 317.698C108.507 317.88 108.683 318.069 108.847 318.266Z" fill="#F3C49D"/>
<path d="M73.8355 364.716C73.8355 364.716 78.7366 375.93 79.5401 378.733C80.3436 381.536 81.6149 384.142 79.792 384.543C77.9691 384.944 77.4614 385.543 74.3552 386.148C71.2491 386.753 68.3988 386.148 67.1036 387.55C65.8124 388.951 65.5445 391.751 63.4778 390.35C61.411 388.951 58.5807 387.55 54.9229 387.951C50.8413 388.198 46.8717 387.797 43.01 386.747C40.4236 385.945 44.5691 379.931 51.0452 375.128C57.5213 370.328 57.0016 369.124 55.1907 368.917C53.3758 368.713 51.0452 363.715 56.4819 362.308C61.9227 360.897 63.7336 362.904 65.8124 364.305C67.8871 365.706 73.8355 364.716 73.8355 364.716Z" fill="#F3C49D"/>
<path d="M97.9291 236.752C97.6733 236.351 101.851 246.362 95.3427 251.974C88.8386 257.586 71.505 253.375 59.0884 246.772C46.6759 240.169 39.3962 232.381 41.451 222.141C43.5098 211.902 67.9071 201.511 80.0558 201.119C92.2086 200.724 117.625 200.922 127.471 202.922C137.317 204.919 145.353 208.123 158.309 207.926C171.261 207.731 176.926 206.321 176.926 206.321C176.926 206.321 157.757 207.512 143.266 204.481C128.775 201.453 108.551 185.456 99.744 180.853C90.9333 176.248 87.3075 178.05 81.3511 178.05C75.3946 178.05 72.2885 176.649 70.9853 172.642C69.6821 168.635 69.9459 164.227 69.4262 159.223C68.9065 154.216 61.6549 149.005 61.391 145.4C61.1272 141.794 58.8046 136.592 63.206 139.189C67.6033 141.788 72.0247 146.999 75.6385 149.406C79.2523 151.814 114.775 172.87 136.79 180.245C158.809 187.623 187.056 195.695 191.985 204.11C196.914 212.525 196.65 220.129 184.733 224.339C172.82 228.55 136.534 234.548 119.956 234.776C103.378 235.002 97.1576 234.579 94.0514 236.579C90.9453 238.576 91.461 237.98 91.461 237.98L97.9291 236.752Z" fill="#F3C49D"/>
<path d="M77.0297 148.301C77.0297 148.301 79.792 133.91 73.9235 128.011C68.0551 122.112 67.3595 106.646 66.3201 99.4441C65.2807 92.2422 61.8308 74.344 63.9016 59.9249C65.9683 45.5057 73.228 22.2763 71.1492 14.5281C69.0744 6.78291 67.0077 -2.55513 63.9016 0.646042C60.7954 3.8503 62.8622 6.25196 62.1746 8.92526C61.491 11.5986 55.9543 14.5281 53.8956 21.2021C51.8368 27.873 51.8168 31.8799 45.6085 33.2196C39.3963 34.5624 32.4684 40.1344 36.2581 43.9221C40.0519 47.7098 45.2447 50.0651 45.9283 55.4025C46.6159 60.7429 37.2975 92.7855 37.9851 103.466C38.6687 114.144 44.893 133.101 45.5885 142.445C46.2841 151.793 43.5098 183.033 43.5098 190.772C43.5098 198.514 42.8142 208.951 41.7868 213.736C41.1992 216.208 40.8514 218.699 40.7474 221.212C40.7474 221.212 42.4704 210.797 60.0878 203.589C77.7053 196.378 87.3755 198.514 87.3755 198.514L85.3007 180.088C85.3007 180.088 74.2473 180.353 71.1332 176.883C68.0151 173.414 67.3315 165.665 67.6713 161.396C68.0151 157.124 60.0679 150.715 59.3843 147.514C58.6967 144.31 57.3055 135.494 59.3843 135.765C61.459 136.04 77.0297 148.301 77.0297 148.301Z" fill="#F3C49D"/>
<path d="M68.6507 456.636C68.6507 456.636 65.8004 456.83 65.2807 456.037L64.761 455.234C64.761 455.234 72.5323 455.636 77.1975 456.84C81.8587 458.044 87.5633 458.84 88.083 460.044C88.6027 461.248 88.3389 467.252 88.3389 467.252C84.4772 466.647 80.5915 466.511 76.6779 466.851C70.7214 467.449 66.3121 470.456 66.5759 468.653C66.8398 466.851 71.473 465.048 70.9853 464.048C70.4936 463.051 66.5759 461.248 64.5092 462.248C62.4384 463.245 56.474 465.048 53.8875 464.647C51.3011 464.245 49.4782 463.844 51.5529 463.041C53.6317 462.239 54.6591 463.239 57.7772 461.041C60.8913 458.846 62.1865 458.837 63.9975 459.044C65.8124 459.247 62.4384 457.642 57.2655 459.643C52.0926 461.64 47.4674 460.64 48.7146 460.044C49.9579 459.445 53.8955 458.642 55.9623 457.84C58.029 457.037 61.9227 455.438 65.2927 456.037L68.6627 456.636" fill="#F3C49D"/>
<path d="M63.9015 342.153C63.9015 342.153 72.5324 361.913 72.1886 362.981C71.8448 364.049 67.7033 364.049 64.2413 361.647C60.7834 359.245 54.5711 360.845 51.8088 363.252C49.0464 365.66 53.5318 370.463 53.5318 370.463C53.5318 370.463 46.9677 376.869 43.5178 380.308C40.0718 383.747 40.7554 385.383 40.0598 386.185C39.3643 386.988 25.2047 388.056 23.13 382.444C21.0512 376.832 18.6407 376.301 17.9451 371.766C17.2495 367.228 21.7468 362.419 22.4344 357.082C23.118 351.741 28.9985 350.938 37.2895 344.53C45.5765 338.125 58.3728 337.353 63.9015 342.153Z" fill="#F6D7C5"/>
<path d="M21.0712 357.109C21.0712 357.109 20.3756 361.382 17.2695 364.055C14.1634 366.728 15.8863 373.143 15.8863 373.143C15.8863 373.143 12.4284 371.272 9.32228 372.34C6.21614 373.408 -1.73109 372.606 0.339669 368.334C2.40643 364.064 2.41442 365.395 1.71884 360.595C1.02326 355.794 0.679466 354.992 7.24752 353.383C13.8116 351.778 10.7054 349.114 15.8783 349.114C21.0512 349.114 22.7862 353.121 21.7588 354.451C21.1232 355.276 20.8953 356.162 21.0712 357.109Z" fill="#F6D7C5"/>
<path d="M100.172 240.425C100.172 240.425 114.647 269.795 121.251 276.203C127.855 282.609 126.404 284.217 127.463 301.84C128.519 319.464 127.803 327.74 122.278 333.648C119.244 336.973 115.674 339.909 111.569 342.455C111.569 342.455 121.935 315.191 100.516 313.086C79.0964 310.981 73.2279 317.896 68.7306 320.294C64.2333 322.696 62.8501 333.648 63.2059 336.853L63.5457 340.054L61.1272 338.723C61.1272 338.723 58.021 314.154 64.2333 302.945C70.4456 291.737 71.8368 278.376 69.758 270.637C67.6832 262.895 59.744 253.276 50.7614 246.34C41.7748 239.404 39.3642 236.193 38.6687 230.05C37.9731 223.907 39.0125 222.573 39.0125 222.573C39.0125 222.573 38.3169 231.118 45.2327 238.326C52.1526 245.537 80.8314 261.284 91.5409 255.641C102.251 249.998 100.871 242.024 100.172 240.425Z" fill="#7893B3"/>
</svg>
