<svg width="195" height="500" viewBox="0 0 195 500" fill="none" xmlns="http://www.w3.org/2000/svg">
<path d="M61.6182 123.152C61.6182 123.152 70.6673 132.802 78.9902 135.599C87.3095 138.397 88.7044 137.156 91.293 134.67C93.8815 132.184 100.342 123.779 99.6123 119.74C98.886 115.697 98.886 113.829 100.342 110.717C101.802 107.604 103.233 100.755 97.4515 95.1563C91.6705 89.5609 90.9406 92.0251 84.7821 91.4199C78.6235 90.8146 72.4793 94.2176 69.9411 98.8835C67.4028 103.552 64.8754 112.887 61.9489 112.887C59.0188 112.887 56.1535 115.685 55.0713 115.685H53.9927C53.9927 115.685 55.438 120.354 57.9762 119.727C58.8391 119.431 59.6156 119.014 60.3023 118.473C60.9854 117.936 61.5391 117.309 61.9597 116.596L59.7846 120.95L61.6182 123.152Z" fill="#F3C49D"/>
<path d="M60.1729 125.023L61.2551 143.693L62.348 154.593C69.4881 158.845 76.1248 163.619 82.2547 168.909C90.9407 176.691 91.3038 178.559 91.3038 178.559C91.3038 178.559 99.9898 171.092 101.802 167.356C103.61 163.616 101.802 159.889 96.7361 152.734C91.6705 145.583 87.3203 144.644 87.3203 144.644C87.4893 147.8 87.1262 150.913 86.2417 153.979C84.7821 158.626 84.419 157.728 84.419 157.728C84.419 157.728 84.7821 147.148 85.5011 143.412L86.2273 139.672C86.2273 139.672 75.733 136.538 70.3042 133.762C64.8754 130.983 60.1729 125.023 60.1729 125.023Z" fill="#F3C49D"/>
<path d="M40.2663 201.583C40.2663 201.583 43.9082 215.275 43.9082 220.567V225.863C43.9082 225.863 80.1047 229.6 89.8729 228.994L99.5907 228.368C99.5907 228.368 104.29 214.679 104.656 208.453C105.02 202.231 104.29 201.302 104.29 201.302C104.29 201.302 85.875 196.281 71.7495 198.451C57.6239 200.622 40.2663 201.583 40.2663 201.583Z" fill="#F3C49D"/>
<path d="M31.5802 175.113C28.6897 173.556 21.4525 147.108 25.7883 124.708C30.1241 102.311 42.0746 81.4982 44.9436 73.3738C47.809 65.2494 61.9489 45.681 67.4136 39.7305C72.8783 33.7769 76.0996 30.3956 76.4627 28.8393C76.8258 27.283 76.4627 24.7972 77.5449 20.4864C78.6234 16.1725 79.5366 15.6599 79.5366 15.6599C79.5366 15.6599 79.7164 17.8431 79.5366 17.2162C79.3533 16.5894 81.7081 1.03224 82.4272 3.18146C83.1426 5.33377 82.9736 11.275 82.9736 11.275C82.9736 11.275 83.3367 0.559784 84.6023 0.0502702C85.8642 -0.46233 86.2417 3.04559 86.0475 6.00076C85.8534 8.95594 85.3177 14.5544 85.3177 14.5544C85.3177 14.5544 86.8241 0.884019 87.8559 0.247899C89.0711 -0.524089 88.4024 7.39961 88.4024 10.6914C88.3952 12.5627 88.5138 14.4278 88.7655 16.2867C88.7655 16.2867 89.1322 4.62354 90.7572 5.08364C92.3859 5.54066 91.3037 22.9691 90.5775 26.3967C89.8477 29.8213 90.5775 31.0626 87.1405 34.1753C83.7035 37.2849 79.0009 41.9539 77.4226 45.224C75.8443 48.4911 58.1811 79.5868 57.0882 85.352C55.9952 91.1172 48.5855 116.614 48.9522 125.356C49.3153 134.095 56.9192 143.399 56.9192 143.399L55.1072 155.535L31.5802 175.113Z" fill="#F3C49D"/>
<path d="M100.705 116.386C100.705 116.386 102.068 121.283 99.8927 125.252C97.7176 129.22 95.823 143.004 96.3586 144.851C96.8943 146.7 111.566 166.321 111.02 165.392C110.473 164.462 119.436 127.589 120.738 114.048C122.036 100.505 121.816 92.5778 121.55 89.0792C121.284 85.5805 100.173 28.1692 100.173 28.1692C100.173 28.1692 96.9051 11.9111 95.4598 8.49586C94.0146 5.08367 94.0146 7.87209 93.8312 11.451C93.6515 15.0331 93.6515 16.5894 93.6515 16.5894C93.6515 16.5894 94.0146 5.38629 92.9216 3.36985C91.8287 1.35342 91.8395 4.14184 91.8395 4.14184C91.8395 4.14184 91.0989 -0.0639562 90.2108 0.559812C89.3264 1.18667 89.4846 4.73782 89.4846 4.73782C89.4846 4.73782 91.8395 4.26845 92.1918 5.78155C92.5441 7.29773 92.3752 22.2712 92.0084 26.1652C91.6453 30.0591 90.3834 33.3169 92.1918 35.9694C94.0038 38.622 97.4408 54.4848 100.159 71.2864C102.88 88.088 104.459 95.147 104.459 101.684C104.459 108.221 99.6015 110.55 100.705 116.386Z" fill="#F3C49D"/>
<path d="M89.3121 315.914C89.3121 315.914 93.6623 329.918 89.8585 332.247C86.0584 334.575 78.735 334.816 77.1063 339.244C75.4777 343.672 68.9668 361.882 68.4203 367.011C67.8739 372.137 67.6078 376.815 64.6202 376.346C61.6326 375.873 63.538 370.278 63.538 370.278C63.538 370.278 62.1791 359.544 62.9916 352.775C63.8041 346.01 61.0969 332.237 60.2844 325.011C59.4683 317.786 59.7379 312.876 65.4471 314.275C71.1527 315.677 89.3121 315.914 89.3121 315.914Z" fill="#F3C49D"/>
<path d="M43.9693 465.501C43.1065 465.103 40.7157 478.103 44.239 483.702C47.7587 489.297 46.9462 487.2 50.7499 490.937C54.55 494.676 52.3749 497.202 58.6198 499.29C64.8611 501.38 67.597 498.141 71.6632 498.644C75.7329 499.144 78.4545 497.245 77.642 494.905C76.8259 492.567 67.9242 486.552 63.5272 480.431C59.1303 474.314 58.3034 462.472 58.3034 462.472C58.3034 462.472 49.132 467.86 43.9693 465.501Z" fill="#F3C49D"/>
<mask id="mask0_60_29" style="mask-type:luminance" maskUnits="userSpaceOnUse" x="0" y="116" width="31" height="76">
<path d="M0 116.55H30.1638V191.649H0V116.55Z" fill="white"/>
</mask>
<g mask="url(#mask0_60_29)">
<path d="M25.7884 116.615C25.2419 117.785 19.5435 128.281 17.3684 134.367C15.1969 140.457 15.1969 141.133 15.1969 141.133C15.1969 141.133 18.4506 132.267 18.1845 136.695C17.9149 141.124 24.6955 144.632 13.0218 154.198C11.2961 155.603 9.71424 157.122 8.27975 158.753C6.84167 160.383 5.57257 162.103 4.46524 163.913C3.35792 165.722 2.43036 167.597 1.67896 169.539C0.931158 171.478 0.370306 173.458 0 175.477C0 175.477 5.16271 159.377 9.23248 162.875C13.3023 166.374 6.24487 165.861 4.85712 172.346C4.06258 176.144 3.70306 179.973 3.77856 183.833C3.77856 183.132 6.20532 174.026 6.48575 176.366C6.50013 178.723 6.23049 181.054 5.67323 183.364C7.65778 182.175 9.10665 180.619 10.0198 178.695C11.3824 175.656 11.3824 178.466 10.5663 181.023C10.0522 182.601 9.1462 183.994 7.85912 185.201C11.2458 184.55 14.2298 183.228 16.8112 181.233C20.3453 178.195 17.3576 184.5 17.3576 184.5L11.3824 191.037C11.3824 191.037 18.9863 186.6 22.506 180.773C26.0293 174.946 26.0437 171.907 26.0437 174.937C26.0437 177.963 22.506 185.67 22.506 185.67C22.506 185.67 28.7508 179.133 29.2973 176.564C29.8438 173.995 25.2275 167.001 24.4402 159.763C23.6492 152.527 22.2651 138.764 23.0776 131.569C23.8937 124.375 25.7884 116.615 25.7884 116.615Z" fill="#F6D7C5"/>
</g>
<path d="M88.5858 138.085C88.5858 138.085 86.7738 141.97 87.3706 142.908C87.9638 143.85 90.4445 145.394 91.5375 144.934C92.6304 144.474 95.1794 144.465 95.7043 142.136C96.2256 139.808 96.2508 132.644 97.5127 130.316C98.7746 127.987 98.5948 127.518 98.5948 127.518C98.5948 127.518 90.3942 138.085 88.5858 138.085Z" fill="#F6D7C5"/>
<path d="M84.2356 90.3236C83.6891 90.478 75.0031 91.3673 72.2959 94.06C69.5887 96.7558 67.0505 102.926 64.5087 107.906C61.9705 112.887 59.8098 111.791 57.6347 113.505C55.4596 115.216 53.2881 114.277 52.9357 115.216C52.5834 116.157 54.0143 119.727 56.006 120.196C58.0014 120.666 58.5478 120.823 58.5478 120.823L60.1729 142.921C60.1729 142.921 56.006 141.364 54.5608 139.181C53.1155 136.998 49.7036 129.22 50.0452 123.152C50.3831 117.087 53.2988 107.749 54.7441 101.338C56.1894 94.9277 56.1894 88.5789 59.6048 86.405C63.0167 84.2341 68.6539 83.7648 72.4541 84.0767C76.2542 84.3916 78.6127 82.6778 73.8994 82.6778C69.186 82.6778 62.1646 86.7199 62.1646 86.7199C62.1646 86.7199 67.0253 80.8096 74.6543 80.9671C82.2798 81.1215 83.7035 80.9671 87.5036 81.7391C91.3037 82.5111 89.312 80.4977 92.5692 82.051C95.8229 83.6073 100.536 88.9031 101.618 92.6303C102.528 96.1135 103.01 99.64 103.064 103.207C103.064 105.232 102.334 106.477 102.517 105.85C102.701 105.223 103.064 98.8525 98.3503 94.4892C93.637 90.1229 90.9298 89.3509 88.219 90.3112C85.5119 91.2716 84.2356 90.3236 84.2356 90.3236Z" fill="#F6D7C5"/>
<path d="M32.5761 176.827L40.4496 200.635C40.4496 200.635 60.2592 199.934 67.597 197.834C74.9312 195.737 77.908 195.036 88.7655 196.667C94.9061 197.528 100.878 198.921 106.684 200.842C106.684 200.842 115.636 190.577 114.288 183.092C112.94 175.604 111.031 167.427 111.031 167.427C111.031 167.427 105.203 159.148 101.802 154.01C98.4007 148.871 95.2765 145.197 94.1979 145.197C93.4357 145.224 92.7095 145.382 92.0228 145.666C92.0228 145.666 102.032 158.28 103.247 162.477C104.459 166.676 93.9283 177.568 92.314 178.809C90.6998 180.053 91.2319 179.979 91.2319 179.979C91.2319 179.979 84.4441 170.175 78.3323 166.405C72.224 162.634 65.1666 157.298 63.272 156.14C61.3773 154.979 61.7764 155.211 61.2299 151.826C60.6834 148.442 61.6433 144.591 60.1513 143.662C59.1986 143.094 58.1776 142.637 57.0882 142.294C57.0882 142.294 58.1704 142.522 57.3543 148.13C56.5417 153.738 56.5417 155.711 55.0497 156.881C53.5541 158.052 32.6516 175.678 32.6516 175.678L32.5761 176.827Z" fill="#D9D9D9"/>
<path d="M42.4414 228.013C42.4414 228.013 38.4543 240.148 30.5017 247.612C22.5455 255.079 16.7501 273.125 17.4655 294.907C18.1846 316.689 34.8375 367.406 33.0256 375.802C31.2172 384.198 29.3836 409.717 33.7554 429.057C36.1858 440.1 39.3244 450.991 43.1676 461.731C43.4409 462.216 43.7968 462.651 44.2318 463.037C44.6668 463.426 45.163 463.744 45.7166 463.997C46.2703 464.247 46.8563 464.42 47.4711 464.51C48.0895 464.603 48.7078 464.609 49.3262 464.528C54.0287 464.217 57.6491 460.486 57.6491 460.486C57.6491 460.486 62.348 392.968 62.348 384.875C62.348 376.784 61.2659 373.391 61.6182 369.003C61.9705 364.618 61.6182 342.897 60.1729 334.158C58.7277 325.419 57.6347 314.871 60.1729 313.002L62.7112 311.134L68.1435 296.513C68.1435 296.513 105.419 313.941 119.156 309.89C132.897 305.838 158.246 311.134 161.5 313.629C163.086 314.96 164.894 316.004 166.929 316.76C157.743 313.595 148.212 311.73 138.336 311.165C122.05 310.236 113.727 312.721 105.397 313.651C97.0633 314.58 91.2822 315.204 91.2822 315.204C91.2822 315.204 93.4537 328.896 92.7275 331.382L91.9977 333.865C91.9977 333.865 126.386 332.935 149.913 332.935C173.44 332.935 183.571 331.694 187.565 326.67C191.563 321.649 198.06 316.093 193.361 310.495C188.662 304.9 160.785 285.915 143.413 278.763C126.044 271.608 109.028 266.627 107.216 267.276C105.408 267.924 106.853 273.541 94.5503 277.238C82.2439 280.934 79.7057 281.592 79.7057 281.592C79.7057 281.592 96.711 275.055 101.058 270.7C105.408 266.346 107.935 260.739 105.045 255.143C102.154 249.545 101.399 229.319 101.399 229.319C101.399 229.319 92.35 229.946 75.3447 230.248C64.3002 230.341 53.3313 229.597 42.4414 228.013Z" fill="#7893B3"/>
</svg>
